<svg width="640" height="260" viewBox="0 0 640 260" fill="none" xmlns="http://www.w3.org/2000/svg" role="img" aria-labelledby="title desc">
  <title id="title">Most Used Languages</title>
  <desc id="desc">Language usage snapshot across accessible repositories.</desc>
  <rect x="1" y="1" width="638" height="258" rx="16" fill="#ffffff" stroke="#d0d7de" stroke-width="2"/>
  <text x="40" y="58" fill="#2f80d0" font-family="-apple-system,BlinkMacSystemFont,Segoe UI,Arial,sans-serif" font-size="32" font-weight="700">最常用的语言</text>
  <rect x="40" y="86" width="560" height="18" rx="9" fill="#eaeef2"/>
  <rect x="40" y="86" width="186.7" height="18" rx="9" fill="#3572A5"/>
  <rect x="226.7" y="86" width="112" height="18" fill="#f1e05a"/>
  <rect x="338.7" y="86" width="112" height="18" fill="#89e051"/>
  <rect x="450.7" y="86" width="74.7" height="18" fill="#555555"/>
  <rect x="525.4" y="86" width="56" height="18" fill="#f34b7d"/>
  <rect x="581.4" y="86" width="18.6" height="18" rx="9" fill="#3178c6"/>

  <circle cx="54" cy="142" r="10" fill="#3572A5"/>
  <text x="76" y="151" fill="#57606a" font-family="-apple-system,BlinkMacSystemFont,Segoe UI,Arial,sans-serif" font-size="24">Python 33.33%</text>
  <circle cx="354" cy="142" r="10" fill="#f1e05a"/>
  <text x="376" y="151" fill="#57606a" font-family="-apple-system,BlinkMacSystemFont,Segoe UI,Arial,sans-serif" font-size="24">JavaScript 20.00%</text>

  <circle cx="54" cy="184" r="10" fill="#89e051"/>
  <text x="76" y="193" fill="#57606a" font-family="-apple-system,BlinkMacSystemFont,Segoe UI,Arial,sans-serif" font-size="24">Shell 20.00%</text>
  <circle cx="354" cy="184" r="10" fill="#555555"/>
  <text x="376" y="193" fill="#57606a" font-family="-apple-system,BlinkMacSystemFont,Segoe UI,Arial,sans-serif" font-size="24">C 13.33%</text>

  <circle cx="54" cy="226" r="10" fill="#f34b7d"/>
  <text x="76" y="235" fill="#57606a" font-family="-apple-system,BlinkMacSystemFont,Segoe UI,Arial,sans-serif" font-size="24">C++ 10.00%</text>
  <circle cx="354" cy="226" r="10" fill="#3178c6"/>
  <text x="376" y="235" fill="#57606a" font-family="-apple-system,BlinkMacSystemFont,Segoe UI,Arial,sans-serif" font-size="24">TypeScript 3.33%</text>
</svg>
